<mxfile host="app.diagrams.net" agent="Mozilla/5.0 (Windows NT 10.0; Win64; x64) AppleWebKit/537.36 (KHTML, like Gecko) Chrome/131.0.0.0 Safari/537.36" version="26.0.4">
  <diagram id="prtHgNgQTEPvFCAcTncT" name="Page-1">
    <mxGraphModel dx="1679" dy="883" grid="1" gridSize="10" guides="1" tooltips="1" connect="1" arrows="1" fold="1" page="1" pageScale="1" pageWidth="827" pageHeight="1169" math="0" shadow="0">
      <root>
        <mxCell id="0" />
        <mxCell id="1" parent="0" />
        <mxCell id="6eolTuulfdpMQWZwz00n-1" value="本地消息降级流程" style="swimlane;" vertex="1" parent="1">
          <mxGeometry x="240" y="250" width="1110" height="1210" as="geometry" />
        </mxCell>
        <mxCell id="6eolTuulfdpMQWZwz00n-2" value="App" style="swimlane;" vertex="1" parent="6eolTuulfdpMQWZwz00n-1">
          <mxGeometry y="30" width="200" height="1180" as="geometry" />
        </mxCell>
        <mxCell id="6eolTuulfdpMQWZwz00n-12" value="" style="edgeStyle=orthogonalEdgeStyle;rounded=0;orthogonalLoop=1;jettySize=auto;html=1;" edge="1" parent="6eolTuulfdpMQWZwz00n-2" source="6eolTuulfdpMQWZwz00n-10" target="6eolTuulfdpMQWZwz00n-11">
          <mxGeometry relative="1" as="geometry" />
        </mxCell>
        <mxCell id="6eolTuulfdpMQWZwz00n-10" value="Start" style="strokeWidth=2;html=1;shape=mxgraph.flowchart.terminator;whiteSpace=wrap;" vertex="1" parent="6eolTuulfdpMQWZwz00n-2">
          <mxGeometry x="50" y="50" width="100" height="60" as="geometry" />
        </mxCell>
        <mxCell id="6eolTuulfdpMQWZwz00n-11" value="发送通知" style="rounded=1;whiteSpace=wrap;html=1;strokeWidth=2;" vertex="1" parent="6eolTuulfdpMQWZwz00n-2">
          <mxGeometry x="40" y="190" width="120" height="60" as="geometry" />
        </mxCell>
        <mxCell id="6eolTuulfdpMQWZwz00n-7" value="" style="swimlane;align=center;" vertex="1" parent="6eolTuulfdpMQWZwz00n-1">
          <mxGeometry x="200" y="30" width="350" height="1180" as="geometry" />
        </mxCell>
        <mxCell id="6eolTuulfdpMQWZwz00n-16" value="" style="edgeStyle=orthogonalEdgeStyle;rounded=0;orthogonalLoop=1;jettySize=auto;html=1;" edge="1" parent="6eolTuulfdpMQWZwz00n-7" source="6eolTuulfdpMQWZwz00n-13" target="6eolTuulfdpMQWZwz00n-15">
          <mxGeometry relative="1" as="geometry" />
        </mxCell>
        <mxCell id="6eolTuulfdpMQWZwz00n-13" value="接收通知信息" style="rounded=1;whiteSpace=wrap;html=1;strokeWidth=2;" vertex="1" parent="6eolTuulfdpMQWZwz00n-7">
          <mxGeometry x="40" y="190" width="120" height="60" as="geometry" />
        </mxCell>
        <mxCell id="6eolTuulfdpMQWZwz00n-15" value="提前回调给Mcs" style="rounded=1;whiteSpace=wrap;html=1;strokeWidth=2;" vertex="1" parent="6eolTuulfdpMQWZwz00n-7">
          <mxGeometry x="40" y="330" width="120" height="60" as="geometry" />
        </mxCell>
        <mxCell id="6eolTuulfdpMQWZwz00n-36" value="" style="edgeStyle=orthogonalEdgeStyle;rounded=0;orthogonalLoop=1;jettySize=auto;html=1;" edge="1" parent="6eolTuulfdpMQWZwz00n-7" source="6eolTuulfdpMQWZwz00n-33" target="6eolTuulfdpMQWZwz00n-35">
          <mxGeometry relative="1" as="geometry" />
        </mxCell>
        <mxCell id="6eolTuulfdpMQWZwz00n-33" value="接收调整后的通知" style="whiteSpace=wrap;html=1;rounded=1;strokeWidth=2;" vertex="1" parent="6eolTuulfdpMQWZwz00n-7">
          <mxGeometry x="30" y="730" width="120" height="60" as="geometry" />
        </mxCell>
        <mxCell id="6eolTuulfdpMQWZwz00n-35" value="发送通知" style="whiteSpace=wrap;html=1;rounded=1;strokeWidth=2;" vertex="1" parent="6eolTuulfdpMQWZwz00n-7">
          <mxGeometry x="30" y="870" width="120" height="60" as="geometry" />
        </mxCell>
        <mxCell id="6eolTuulfdpMQWZwz00n-8" value="mcs" style="swimlane;startSize=23;" vertex="1" parent="6eolTuulfdpMQWZwz00n-1">
          <mxGeometry x="550" y="30" width="330" height="1180" as="geometry" />
        </mxCell>
        <mxCell id="6eolTuulfdpMQWZwz00n-26" value="" style="edgeStyle=orthogonalEdgeStyle;rounded=0;orthogonalLoop=1;jettySize=auto;html=1;" edge="1" parent="6eolTuulfdpMQWZwz00n-8" source="6eolTuulfdpMQWZwz00n-17" target="6eolTuulfdpMQWZwz00n-25">
          <mxGeometry relative="1" as="geometry" />
        </mxCell>
        <mxCell id="6eolTuulfdpMQWZwz00n-17" value="接收通知入队" style="rounded=1;whiteSpace=wrap;html=1;strokeWidth=2;" vertex="1" parent="6eolTuulfdpMQWZwz00n-8">
          <mxGeometry x="100" y="330" width="120" height="60" as="geometry" />
        </mxCell>
        <mxCell id="6eolTuulfdpMQWZwz00n-28" value="" style="edgeStyle=orthogonalEdgeStyle;rounded=0;orthogonalLoop=1;jettySize=auto;html=1;" edge="1" parent="6eolTuulfdpMQWZwz00n-8" source="6eolTuulfdpMQWZwz00n-25" target="6eolTuulfdpMQWZwz00n-27">
          <mxGeometry relative="1" as="geometry" />
        </mxCell>
        <mxCell id="6eolTuulfdpMQWZwz00n-25" value="滥用权益通道" style="rhombus;whiteSpace=wrap;html=1;rounded=1;strokeWidth=2;" vertex="1" parent="6eolTuulfdpMQWZwz00n-8">
          <mxGeometry x="120" y="460" width="80" height="80" as="geometry" />
        </mxCell>
        <mxCell id="6eolTuulfdpMQWZwz00n-27" value="降低优先级" style="whiteSpace=wrap;html=1;rounded=1;strokeWidth=2;" vertex="1" parent="6eolTuulfdpMQWZwz00n-8">
          <mxGeometry x="100" y="630" width="120" height="60" as="geometry" />
        </mxCell>
        <mxCell id="6eolTuulfdpMQWZwz00n-31" value="返回给 system" style="whiteSpace=wrap;html=1;rounded=1;strokeWidth=2;" vertex="1" parent="6eolTuulfdpMQWZwz00n-8">
          <mxGeometry x="100" y="730" width="120" height="60" as="geometry" />
        </mxCell>
        <mxCell id="6eolTuulfdpMQWZwz00n-32" value="" style="edgeStyle=orthogonalEdgeStyle;rounded=0;orthogonalLoop=1;jettySize=auto;html=1;" edge="1" parent="6eolTuulfdpMQWZwz00n-8" source="6eolTuulfdpMQWZwz00n-27" target="6eolTuulfdpMQWZwz00n-31">
          <mxGeometry relative="1" as="geometry" />
        </mxCell>
        <mxCell id="6eolTuulfdpMQWZwz00n-14" value="" style="edgeStyle=orthogonalEdgeStyle;rounded=0;orthogonalLoop=1;jettySize=auto;html=1;" edge="1" parent="6eolTuulfdpMQWZwz00n-1" source="6eolTuulfdpMQWZwz00n-11" target="6eolTuulfdpMQWZwz00n-13">
          <mxGeometry relative="1" as="geometry" />
        </mxCell>
        <mxCell id="6eolTuulfdpMQWZwz00n-18" value="" style="edgeStyle=orthogonalEdgeStyle;rounded=0;orthogonalLoop=1;jettySize=auto;html=1;" edge="1" parent="6eolTuulfdpMQWZwz00n-1" source="6eolTuulfdpMQWZwz00n-15" target="6eolTuulfdpMQWZwz00n-17">
          <mxGeometry relative="1" as="geometry" />
        </mxCell>
        <mxCell id="6eolTuulfdpMQWZwz00n-21" value="systemUI" style="swimlane;" vertex="1" parent="6eolTuulfdpMQWZwz00n-1">
          <mxGeometry x="880" y="30" width="230" height="1180" as="geometry" />
        </mxCell>
        <mxCell id="6eolTuulfdpMQWZwz00n-37" value="展示通知" style="whiteSpace=wrap;html=1;rounded=1;strokeWidth=2;" vertex="1" parent="6eolTuulfdpMQWZwz00n-21">
          <mxGeometry x="70" y="870" width="120" height="60" as="geometry" />
        </mxCell>
        <mxCell id="6eolTuulfdpMQWZwz00n-39" value="End" style="strokeWidth=2;html=1;shape=mxgraph.flowchart.terminator;whiteSpace=wrap;" vertex="1" parent="6eolTuulfdpMQWZwz00n-21">
          <mxGeometry x="80" y="1020" width="100" height="60" as="geometry" />
        </mxCell>
        <mxCell id="6eolTuulfdpMQWZwz00n-40" style="edgeStyle=orthogonalEdgeStyle;rounded=0;orthogonalLoop=1;jettySize=auto;html=1;exitX=0.5;exitY=1;exitDx=0;exitDy=0;entryX=0.5;entryY=0;entryDx=0;entryDy=0;entryPerimeter=0;" edge="1" parent="6eolTuulfdpMQWZwz00n-21" source="6eolTuulfdpMQWZwz00n-37" target="6eolTuulfdpMQWZwz00n-39">
          <mxGeometry relative="1" as="geometry" />
        </mxCell>
        <mxCell id="6eolTuulfdpMQWZwz00n-34" value="" style="edgeStyle=orthogonalEdgeStyle;rounded=0;orthogonalLoop=1;jettySize=auto;html=1;" edge="1" parent="6eolTuulfdpMQWZwz00n-1" source="6eolTuulfdpMQWZwz00n-31" target="6eolTuulfdpMQWZwz00n-33">
          <mxGeometry relative="1" as="geometry" />
        </mxCell>
        <mxCell id="6eolTuulfdpMQWZwz00n-38" value="" style="edgeStyle=orthogonalEdgeStyle;rounded=0;orthogonalLoop=1;jettySize=auto;html=1;" edge="1" parent="6eolTuulfdpMQWZwz00n-1" source="6eolTuulfdpMQWZwz00n-35" target="6eolTuulfdpMQWZwz00n-37">
          <mxGeometry relative="1" as="geometry" />
        </mxCell>
      </root>
    </mxGraphModel>
  </diagram>
</mxfile>
